<?xml version="1.0" encoding="UTF-8" standalone="no"?>
<!DOCTYPE svg PUBLIC "-//W3C//DTD SVG 1.1//EN"
 "http://www.w3.org/Graphics/SVG/1.1/DTD/svg11.dtd">
<!-- Generated by graphviz version 2.40.1 (0)
 -->
<!-- Title: %3 Pages: 1 -->
<svg width="280pt" height="260pt"
 viewBox="0.00 0.00 279.68 260.00" xmlns="http://www.w3.org/2000/svg" xmlns:xlink="http://www.w3.org/1999/xlink">
<g id="graph0" class="graph" transform="scale(1 1) rotate(0) translate(4 256)">
<title>%3</title>
<polygon fill="#ffffff" stroke="transparent" points="-4,4 -4,-256 275.6759,-256 275.6759,4 -4,4"/>
<!-- ERA5_fdf332b1&#45;c5fa&#45;484a&#45;bb2f&#45;5c0ed32276dd -->
<g id="node1" class="node">
<title>ERA5_fdf332b1&#45;c5fa&#45;484a&#45;bb2f&#45;5c0ed32276dd</title>
<polygon fill="none" stroke="#000000" points="89.3379,-252 32.3379,-252 32.3379,-216 89.3379,-216 89.3379,-252"/>
<text text-anchor="middle" x="60.8379" y="-230.3" font-family="Times,serif" font-size="14.00" fill="#000000">ERA5</text>
</g>
<!-- Merge_9255a1e9&#45;fb12&#45;486b&#45;b236&#45;9118ba77d559 -->
<g id="node4" class="node">
<title>Merge_9255a1e9&#45;fb12&#45;486b&#45;b236&#45;9118ba77d559</title>
<ellipse fill="none" stroke="#000000" cx="135.8379" cy="-162" rx="61.1893" ry="18"/>
<text text-anchor="middle" x="135.8379" y="-158.3" font-family="Times,serif" font-size="14.00" fill="#000000">join.Merge</text>
</g>
<!-- ERA5_fdf332b1&#45;c5fa&#45;484a&#45;bb2f&#45;5c0ed32276dd&#45;&gt;Merge_9255a1e9&#45;fb12&#45;486b&#45;b236&#45;9118ba77d559 -->
<g id="edge1" class="edge">
<title>ERA5_fdf332b1&#45;c5fa&#45;484a&#45;bb2f&#45;5c0ed32276dd&#45;&gt;Merge_9255a1e9&#45;fb12&#45;486b&#45;b236&#45;9118ba77d559</title>
<path fill="none" stroke="#000000" d="M79.7636,-215.8314C89.0311,-206.9346 100.3235,-196.0939 110.3391,-186.4789"/>
<polygon fill="#000000" stroke="#000000" points="112.9045,-188.8679 117.6945,-179.4177 108.0567,-183.8182 112.9045,-188.8679"/>
</g>
<!-- ERA5_0817e6df&#45;bc3b&#45;4499&#45;9aba&#45;2716f177f614 -->
<g id="node2" class="node">
<title>ERA5_0817e6df&#45;bc3b&#45;4499&#45;9aba&#45;2716f177f614</title>
<polygon fill="none" stroke="#000000" points="164.3379,-252 107.3379,-252 107.3379,-216 164.3379,-216 164.3379,-252"/>
<text text-anchor="middle" x="135.8379" y="-230.3" font-family="Times,serif" font-size="14.00" fill="#000000">ERA5</text>
</g>
<!-- ERA5_0817e6df&#45;bc3b&#45;4499&#45;9aba&#45;2716f177f614&#45;&gt;Merge_9255a1e9&#45;fb12&#45;486b&#45;b236&#45;9118ba77d559 -->
<g id="edge2" class="edge">
<title>ERA5_0817e6df&#45;bc3b&#45;4499&#45;9aba&#45;2716f177f614&#45;&gt;Merge_9255a1e9&#45;fb12&#45;486b&#45;b236&#45;9118ba77d559</title>
<path fill="none" stroke="#000000" d="M135.8379,-215.8314C135.8379,-208.131 135.8379,-198.9743 135.8379,-190.4166"/>
<polygon fill="#000000" stroke="#000000" points="139.338,-190.4132 135.8379,-180.4133 132.338,-190.4133 139.338,-190.4132"/>
</g>
<!-- ERA5_cd692553&#45;a53d&#45;4077&#45;848b&#45;364da6f1b484 -->
<g id="node3" class="node">
<title>ERA5_cd692553&#45;a53d&#45;4077&#45;848b&#45;364da6f1b484</title>
<polygon fill="none" stroke="#000000" points="239.3379,-252 182.3379,-252 182.3379,-216 239.3379,-216 239.3379,-252"/>
<text text-anchor="middle" x="210.8379" y="-230.3" font-family="Times,serif" font-size="14.00" fill="#000000">ERA5</text>
</g>
<!-- ERA5_cd692553&#45;a53d&#45;4077&#45;848b&#45;364da6f1b484&#45;&gt;Merge_9255a1e9&#45;fb12&#45;486b&#45;b236&#45;9118ba77d559 -->
<g id="edge3" class="edge">
<title>ERA5_cd692553&#45;a53d&#45;4077&#45;848b&#45;364da6f1b484&#45;&gt;Merge_9255a1e9&#45;fb12&#45;486b&#45;b236&#45;9118ba77d559</title>
<path fill="none" stroke="#000000" d="M191.9123,-215.8314C182.6448,-206.9346 171.3524,-196.0939 161.3368,-186.4789"/>
<polygon fill="#000000" stroke="#000000" points="163.6192,-183.8182 153.9814,-179.4177 158.7714,-188.8679 163.6192,-183.8182"/>
</g>
<!-- CoordinateFlatten_cf3c686f&#45;dc68&#45;42ec&#45;b081&#45;5e0b30ccbbd8 -->
<g id="node5" class="node">
<title>CoordinateFlatten_cf3c686f&#45;dc68&#45;42ec&#45;b081&#45;5e0b30ccbbd8</title>
<ellipse fill="none" stroke="#000000" cx="135.8379" cy="-90" rx="135.6761" ry="18"/>
<text text-anchor="middle" x="135.8379" y="-86.3" font-family="Times,serif" font-size="14.00" fill="#000000">reshape.CoordinateFlatten</text>
</g>
<!-- Merge_9255a1e9&#45;fb12&#45;486b&#45;b236&#45;9118ba77d559&#45;&gt;CoordinateFlatten_cf3c686f&#45;dc68&#45;42ec&#45;b081&#45;5e0b30ccbbd8 -->
<g id="edge4" class="edge">
<title>Merge_9255a1e9&#45;fb12&#45;486b&#45;b236&#45;9118ba77d559&#45;&gt;CoordinateFlatten_cf3c686f&#45;dc68&#45;42ec&#45;b081&#45;5e0b30ccbbd8</title>
<path fill="none" stroke="#000000" d="M135.8379,-143.8314C135.8379,-136.131 135.8379,-126.9743 135.8379,-118.4166"/>
<polygon fill="#000000" stroke="#000000" points="139.338,-118.4132 135.8379,-108.4133 132.338,-118.4133 139.338,-118.4132"/>
</g>
<!-- Cache_6e387e61&#45;303f&#45;4136&#45;9330&#45;fbae8478b836 -->
<g id="node6" class="node">
<title>Cache_6e387e61&#45;303f&#45;4136&#45;9330&#45;fbae8478b836</title>
<ellipse fill="none" stroke="#000000" cx="135.8379" cy="-18" rx="70.3881" ry="18"/>
<text text-anchor="middle" x="135.8379" y="-14.3" font-family="Times,serif" font-size="14.00" fill="#000000">cache.Cache</text>
</g>
<!-- CoordinateFlatten_cf3c686f&#45;dc68&#45;42ec&#45;b081&#45;5e0b30ccbbd8&#45;&gt;Cache_6e387e61&#45;303f&#45;4136&#45;9330&#45;fbae8478b836 -->
<g id="edge5" class="edge">
<title>CoordinateFlatten_cf3c686f&#45;dc68&#45;42ec&#45;b081&#45;5e0b30ccbbd8&#45;&gt;Cache_6e387e61&#45;303f&#45;4136&#45;9330&#45;fbae8478b836</title>
<path fill="none" stroke="#000000" d="M135.8379,-71.8314C135.8379,-64.131 135.8379,-54.9743 135.8379,-46.4166"/>
<polygon fill="#000000" stroke="#000000" points="139.338,-46.4132 135.8379,-36.4133 132.338,-46.4133 139.338,-46.4132"/>
</g>
</g>
</svg>
